<?xml version="1.0" encoding="iso-8859-1"?>
<!-- Uploaded to: SVG Repo, www.svgrepo.com, Generator: SVG Repo Mixer Tools -->
<svg fill="#000000" height="800px" width="800px" version="1.1" id="Layer_1" xmlns="http://www.w3.org/2000/svg" xmlns:xlink="http://www.w3.org/1999/xlink" 
	 viewBox="0 0 512.888 512.888" xml:space="preserve">
<g transform="translate(1 1)">
	<g>
		<path d="M498.235,89.257c-0.853-1.707-2.56-2.56-3.413-3.413c6.827-17.92,3.413-38.4-10.24-52.053
			c-14.507-14.507-35.84-17.92-53.76-9.387c-2.56-4.267-5.12-7.68-8.533-11.093c-18.773-18.773-48.64-18.773-67.413,0
			c-12.8,13.653-17.067,32.427-11.093,49.493c-8.533,1.707-16.213,5.973-23.04,12.8c-18.773,18.773-18.773,48.64,0,67.413
			c5.933,6.526,13.929,10.571,22.552,12.435l-20.239,20.239c-16.777-12.268-66.613-41.76-114.099,5.726
			c-15.452,15.452-33.305,35.708-52.619,60.343c-1.011,0.827-1.843,1.866-2.364,3.025C106.589,305.725,50.724,392.655-0.112,499.711
			c-1.707,3.413-0.853,6.827,1.707,9.387c1.707,1.707,3.413,2.56,5.973,2.56c0.853,0,2.56,0,3.413-0.853
			c152.747-72.533,264.533-155.307,318.293-209.067c47.537-47.537,18.718-97.429,5.78-114.153l20.779-20.779
			c1.726,8.921,5.839,17.144,12.694,23.999c8.533,8.533,20.48,13.653,33.28,13.653s24.747-5.12,34.133-14.507
			c6.827-5.973,11.093-14.507,12.8-23.04c17.067,5.973,36.693,1.707,49.493-11.093c8.533-8.533,13.653-20.48,13.653-33.28
			C511.888,109.737,506.768,97.791,498.235,89.257z M318.181,290.644c-50.347,49.493-151.893,126.293-291.84,194.56
			c18.976-38.902,38.546-74.831,57.995-107.523c7.463,3.416,15.651,7.942,19.659,11.95c1.707,1.707,3.413,2.56,5.973,2.56
			s4.267-0.853,5.973-2.56c3.413-3.413,3.413-8.533,0-11.947c-5.752-5.113-14.854-10.225-23.005-14.263
			c10.778-17.631,21.486-34.249,32.001-49.806c13.238,4.744,24.146,10.17,30.257,16.281c1.707,1.707,3.413,2.56,5.973,2.56
			s4.267-0.853,6.827-3.413c3.413-3.413,3.413-8.533,0-11.947c-9.435-8.806-22.107-14.822-32.565-18.748
			c10.113-14.469,20.003-27.916,29.557-40.294c15.1,4.457,32.302,11.536,41.408,20.642c1.707,1.707,3.413,2.56,5.973,2.56
			c2.56,0,4.267-0.853,6.827-2.56c3.413-3.413,3.413-8.533,0-11.947c-11.151-11.151-29.493-18.701-42.955-22.982
			c11.485-14.276,22.386-26.89,32.484-37.754c9.956,1.992,35.793,8.405,48.871,21.483c1.707,1.707,3.413,2.56,5.973,2.56
			s4.267-0.853,5.973-3.413c3.413-3.413,3.413-8.533,0-11.947c-12.345-12.345-32.786-19.623-46.684-23.326
			c14.774-14.638,30.232-19.341,44.124-19.341c17.953,0,33.937,8.524,43.932,15.801l-10.652,10.652
			c-3.413,3.413-3.413,8.533,0,11.947c1.707,1.707,3.413,2.56,5.973,2.56s4.267-0.853,5.973-2.56l10.725-10.725
			C335.257,216.799,354.349,254.477,318.181,290.644z M484.581,144.724c-10.24,10.24-27.307,11.947-39.253,2.56
			c-2.56-2.56-6.827-2.56-9.387-0.853c-2.56,1.707-4.267,5.12-4.267,8.533c0.853,8.533-2.56,17.92-8.533,23.893
			c-11.093,11.093-31.573,11.093-42.667,0c-7.41-7.41-10.829-17.999-7.995-28.698l13.968-13.968h30.72
			c5.12,0,8.533-3.413,8.533-8.533s-3.413-8.533-8.533-8.533h-13.653l17.067-17.067h13.653c5.12,0,8.533-3.413,8.533-8.533
			c0-5.12-3.413-8.533-8.533-8.533h-8.533V67.924c0-5.12-3.413-8.533-8.533-8.533s-8.533,3.413-8.533,8.533v22.187l-17.067,17.067
			v-5.12c0-5.12-3.413-8.533-8.533-8.533s-8.533,3.413-8.533,8.533v22.187l-13.889,13.889c-9.989,2.123-21.367-0.506-28.777-7.916
			c-11.947-11.947-11.947-30.72,0-42.667c5.973-5.973,14.507-9.387,23.893-8.533c3.413,0,6.827-1.707,8.533-4.267
			c1.707-3.413,1.707-6.827,0-10.24c-9.387-11.947-7.68-29.013,2.56-39.253c11.947-11.947,30.72-11.947,42.667,0
			c3.413,4.267,6.827,8.533,7.68,14.507c0.853,2.56,2.56,5.12,5.12,7.68c2.56,0.853,5.12,0,7.68-1.707
			c11.947-10.24,29.013-9.387,40.107,1.707c10.24,9.387,11.947,25.6,4.267,37.547c-0.853,1.707-1.707,4.267-0.853,6.827
			c0.853,1.707,2.56,4.267,4.267,5.12c2.56,1.707,5.12,3.413,6.827,5.12c5.12,5.973,8.533,13.653,8.533,21.333
			S490.555,138.751,484.581,144.724z"/>
	</g>
</g>
</svg>